<svg width="48" height="48" viewBox="0 0 48 48" fill="none" xmlns="http://www.w3.org/2000/svg" role="img" aria-label="Legion mark">
  <defs>
    <radialGradient id="lwCore" cx="50%" cy="50%" r="50%">
      <stop offset="0%" stop-color="#c7f2ff"></stop>
      <stop offset="55%" stop-color="#86e1fc"></stop>
      <stop offset="100%" stop-color="#82aaff"></stop>
    </radialGradient>
    <filter id="lwGlow" x="-60%" y="-60%" width="220%" height="220%">
      <feGaussianBlur stdDeviation="2.4" result="b"></feGaussianBlur>
      <feMerge><feMergeNode in="b"></feMergeNode><feMergeNode in="SourceGraphic"></feMergeNode></feMerge>
    </filter>
  </defs>
  
  <polygon points="24,8 37.86,16 37.86,32 24,40 10.14,32 10.14,16" fill="none" stroke="#3b4261" stroke-width="1.1" stroke-linejoin="round" opacity="0.75"></polygon>
  
  <g stroke="#86e1fc" stroke-width="1.25" opacity="0.5">
    <line x1="24" y1="24" x2="24" y2="8"></line>
    <line x1="24" y1="24" x2="37.86" y2="16"></line>
    <line x1="24" y1="24" x2="37.86" y2="32"></line>
    <line x1="24" y1="24" x2="24" y2="40"></line>
    <line x1="24" y1="24" x2="10.14" y2="32"></line>
    <line x1="24" y1="24" x2="10.14" y2="16"></line>
  </g>
  
  <g fill="#16161e" stroke="#a9ebff" stroke-width="1.3">
    <circle cx="24" cy="8" r="2.4"></circle>
    <circle cx="37.86" cy="16" r="2.4"></circle>
    <circle cx="37.86" cy="32" r="2.4"></circle>
    <circle cx="24" cy="40" r="2.4"></circle>
    <circle cx="10.14" cy="32" r="2.4"></circle>
    <circle cx="10.14" cy="16" r="2.4"></circle>
  </g>
  
  <circle cx="24" cy="24" r="5.4" fill="url(#lwCore)" filter="url(#lwGlow)"></circle>
  <circle cx="24" cy="24" r="5.4" fill="none" stroke="#e6faff" stroke-width="0.8" opacity="0.7"></circle>
</svg>